<svg xmlns="http://www.w3.org/2000/svg" xmlns:xlink="http://www.w3.org/1999/xlink" viewBox="0 0 143 18.4"><defs><style>.b7f6b4d1-7ca1-4bbc-ab92-be6520c5dc8e{fill:#fff;}.b2db5eeb-fc55-49a8-8cc7-e45a15730567{fill:url(#f6058e56-bb9c-4c57-8ce2-d3a39ef8be86);}</style><linearGradient id="f6058e56-bb9c-4c57-8ce2-d3a39ef8be86" x1="9.09" y1="20.39" x2="9.09" y2="-1.42" gradientUnits="userSpaceOnUse"><stop offset="0" stop-color="#00b0b8"/><stop offset="0.04" stop-color="#00b0b8"/><stop offset="0.99" stop-color="#44e6cb"/><stop offset="1" stop-color="#44e6cb"/></linearGradient></defs><g id="b0d6956d-7452-4c53-bfd1-32d207a0ec04" data-name="Layer 1"><path class="b7f6b4d1-7ca1-4bbc-ab92-be6520c5dc8e" d="M35.29,10.75a4.8,4.8,0,0,0,3.19-4.82V5.72c0-4-3.16-5.34-6.8-5.35a33.8,33.8,0,0,0-4.63.3c-.47.07-.75.24-.75.71l0,16.26a.47.47,0,0,0,.47.47h2.36a.45.45,0,0,0,.45-.47v-6.4c.54,0,1.49.09,2.1.09H32l3.4,6.32c.11.23.21.47.47.47h2.88a.26.26,0,0,0,.28-.28.36.36,0,0,0,0-.19Zm-.07-4.82c0,2.08-1.11,2.74-3.55,2.73-.4,0-1.72,0-2.1-.07V3.28c.42,0,1.6-.1,2.1-.1,2.36,0,3.54.76,3.54,2.54Zm11-1.29c-3.62,0-5.67,2.31-5.68,6v1.74c0,4.66,3.35,5.94,5.71,5.94a21.15,21.15,0,0,0,4.58-.4c.43-.07.5-.23.5-.61V15.75c0-.24-.19-.35-.42-.36h-.07c-1,.1-2.63.24-4.35.24-2.27,0-2.83-1.64-2.83-3v-.07h7.7c.33,0,.47-.21.47-.59V10.65C51.83,7.13,49.85,4.65,46.21,4.64Zm2.47,5.7h-5v-.09c0-1.87,1.07-2.91,2.54-2.9s2.48,1.06,2.47,2.9ZM61,11.06,57.9,9.17c-.6-.36-.95-.6-.95-1,0-.74.5-1,1.63-1a36,36,0,0,1,3.9.28h.09c.24,0,.38-.16.38-.44V5.68a.52.52,0,0,0-.42-.55,17.49,17.49,0,0,0-4.21-.47c-3,0-4.48,1.17-4.49,3.53a3.92,3.92,0,0,0,2,3.27l3.24,2c.75.48,1,.76,1,1.21,0,.64-.22,1.13-1.68,1.13-.71,0-2.84-.12-4-.26h-.1a.4.4,0,0,0-.4.38v1.41a.54.54,0,0,0,.45.55,19.82,19.82,0,0,0,4.23.47c3.09,0,4.63-1.62,4.63-3.68C63.25,13.45,63,12.27,61,11.06ZM68.31,0H66a.5.5,0,0,0-.49.48V2.58a.5.5,0,0,0,.49.48H68.3a.48.48,0,0,0,.48-.47V.51A.47.47,0,0,0,68.31,0Zm-.08,4.79H66.06a.48.48,0,0,0-.48.47V17.66a.49.49,0,0,0,.47.49h2.18a.5.5,0,0,0,.47-.5V5.3A.47.47,0,0,0,68.23,4.83ZM85.47.62H83.93c-.43,0-.61.09-.76.4l-3.9,8.1c-.1.21-.17.26-.29.26s-.19-.05-.28-.26L74.81,1c-.14-.31-.33-.4-.75-.4H72.52a.68.68,0,0,0-.69.68v16.4a.47.47,0,0,0,.47.47h1.15a.48.48,0,0,0,.48-.47v-14c0-.05,0-.07,0-.07s0,0,.05.05l3.37,7a1,1,0,0,0,1.06.69h1.08a1,1,0,0,0,1.07-.68l3.38-7s0,0,0,0,0,0,0,.07v14a.47.47,0,0,0,.47.47h1.16a.47.47,0,0,0,.47-.47l0-16.39A.69.69,0,0,0,85.47.62ZM94.23,5C90.85,5,89,7.17,89,10.55v2.12c0,4.4,2.64,5.68,5.35,5.68a21.33,21.33,0,0,0,4.23-.4c.38-.07.47-.23.47-.54v-.8c0-.24-.19-.33-.38-.33h-.12a33.58,33.58,0,0,1-4.21.25c-2.17,0-3.28-1-3.27-3.85v-.33H99a.45.45,0,0,0,.45-.51V10.56C99.42,7.21,97.68,5,94.23,5Zm3.09,5.74H91.06v-.21c0-2.55,1.14-3.71,3.17-3.71s3.09,1,3.09,3.72Zm10.93,5.92h-1.33c-.94,0-1.27-.19-1.27-1.49V7h2.55a.47.47,0,0,0,.47-.47v-.8a.47.47,0,0,0-.47-.47h-2.55V2.63a.37.37,0,0,0-.35-.4h-.07L104,2.41a.49.49,0,0,0-.43.48V5.2h-2.29a.41.41,0,0,0-.45.42v.64c0,.26.19.4.45.43l2.29.26v8.24c0,2.6,1,3.17,3.21,3.17a11.48,11.48,0,0,0,1.53-.11c.31-.05.43-.19.43-.4V17C108.74,16.78,108.58,16.69,108.25,16.69Zm8-11.64a5.71,5.71,0,0,0-3.33,1.13v-.5a.46.46,0,0,0-.45-.47h-1.11a.44.44,0,0,0-.44.47l0,12.05a.47.47,0,0,0,.45.47h1.16a.48.48,0,0,0,.47-.47V7.83a6,6,0,0,1,3.26-1c.33,0,.5-.15.5-.41v-1C116.71,5.19,116.55,5.05,116.21,5.05ZM120.64.31h-1.2a.48.48,0,0,0-.48.47V2.67a.47.47,0,0,0,.47.47h1.21a.47.47,0,0,0,.47-.47V.78A.47.47,0,0,0,120.64.31Zm0,4.91h-1.14a.47.47,0,0,0-.47.47v12a.47.47,0,0,0,.47.47h1.13a.48.48,0,0,0,.48-.47v-12A.47.47,0,0,0,120.59,5.22Zm11.17.11a18.59,18.59,0,0,0-2.95-.27c-3.24,0-5,2.27-5,5.74v1.84c0,3.48,1.81,5.75,5,5.75a17.18,17.18,0,0,0,3-.26c.38-.07.48-.21.48-.52v-.85a.36.36,0,0,0-.4-.35h-.1a24.66,24.66,0,0,1-2.93.16c-1.91,0-2.95-1.28-2.95-3.93V10.8c0-2.67,1.06-3.92,3-3.92a22.66,22.66,0,0,1,2.93.17h.1a.36.36,0,0,0,.4-.35V5.85C132.23,5.52,132.14,5.4,131.76,5.33Zm8.64,6.08L138.07,10c-1.09-.64-1.63-1.09-1.63-1.79,0-1.21.87-1.37,2.2-1.37s2.83.12,3.66.19h.07a.36.36,0,0,0,.4-.4V5.86a.44.44,0,0,0-.44-.47,22.19,22.19,0,0,0-3.69-.31c-2.43,0-4.28.68-4.28,3.13,0,1.49,1,2.51,2.41,3.38L139.15,13c1.35.81,1.77,1.26,1.77,2,0,1.27-.8,1.67-2.34,1.67-.85,0-2.58-.12-3.71-.26h-.09a.38.38,0,0,0-.43.35v.83c0,.26.19.4.5.47a17.8,17.8,0,0,0,3.73.36c2.64,0,4.42-1,4.42-3.42C143,13.59,142.36,12.57,140.4,11.41Z"/><path class="b2db5eeb-fc55-49a8-8cc7-e45a15730567" d="M12.12,18.17h5.09a1,1,0,0,0,.95-.95V12.14H12.12v6ZM17.23,0H1A1,1,0,0,0,0,1V17.21a1,1,0,0,0,1,.95H5.09a1,1,0,0,0,1-1V12.12h6.07V6.06h5.09a1,1,0,0,0,1-.95V1A1,1,0,0,0,17.23,0Z"/></g></svg>